<?xml version="1.0" standalone="no"?>
<!DOCTYPE svg PUBLIC "-//W3C//DTD SVG 20010904//EN"
 "http://www.w3.org/TR/2001/REC-SVG-20010904/DTD/svg10.dtd">
<svg version="1.0" xmlns="http://www.w3.org/2000/svg"
 width="477.000000pt" height="477.000000pt" viewBox="0 0 477.000000 477.000000"
 preserveAspectRatio="xMidYMid meet">
<metadata>
Created by potrace 1.14, written by Peter Selinger 2001-2017
</metadata>
<g transform="translate(0.000000,477.000000) scale(0.100000,-0.100000)"
fill="#000000" stroke="none">
<path d="M2160 4751 c0 -3 -15 -6 -33 -7 -72 -3 -117 -8 -117 -15 0 -4 -7 -6
-17 -5 -9 2 -40 -3 -70 -10 -29 -7 -56 -13 -58 -13 -3 -1 -6 -1 -7 -2 -2 0
-10 -2 -18 -4 -8 -2 -26 -6 -40 -9 -14 -3 -38 -8 -55 -11 -16 -3 -32 -9 -35
-13 -3 -4 -12 -7 -20 -7 -8 0 -26 -5 -40 -12 -14 -7 -32 -13 -41 -13 -9 0 -19
-3 -23 -7 -4 -5 -11 -8 -14 -9 -14 -2 -64 -22 -144 -58 -31 -14 -62 -26 -67
-26 -6 0 -11 -5 -11 -12 0 -6 -3 -9 -6 -5 -4 3 -23 -5 -43 -18 -19 -14 -41
-25 -47 -25 -6 0 -22 -9 -36 -19 -14 -11 -31 -21 -39 -23 -13 -3 -19 -7 -53
-35 -8 -7 -19 -13 -24 -13 -5 0 -21 -11 -36 -25 -15 -14 -31 -25 -36 -25 -5 0
-18 -10 -30 -22 -11 -12 -20 -18 -20 -14 0 4 -11 -3 -25 -16 -13 -13 -38 -34
-56 -48 -18 -14 -45 -37 -60 -52 -16 -15 -29 -25 -29 -23 0 14 -227 -230 -275
-294 -14 -19 -28 -37 -32 -40 -5 -3 -12 -13 -18 -22 -26 -42 -95 -145 -105
-157 -6 -7 -18 -28 -26 -47 -8 -19 -18 -35 -22 -35 -4 0 -14 -17 -21 -37 -8
-21 -17 -40 -20 -43 -7 -5 -80 -161 -105 -222 -8 -20 -12 -39 -8 -42 3 -3 0
-6 -6 -6 -7 0 -11 -3 -10 -7 0 -5 -2 -15 -5 -23 -3 -8 -16 -49 -28 -90 -27
-91 -26 -88 -34 -125 -13 -57 -13 -60 -15 -60 -2 0 -7 -24 -14 -70 -4 -23 -9
-52 -11 -65 -5 -24 -13 -73 -19 -117 -2 -13 2 -23 8 -23 6 0 5 -4 -3 -9 -10
-7 -13 -50 -14 -197 -1 -223 7 -316 40 -494 2 -14 5 -32 7 -40 1 -9 5 -21 10
-28 4 -6 5 -16 1 -21 -3 -5 -1 -12 4 -15 5 -4 8 -14 6 -24 -1 -9 1 -22 6 -27
4 -6 10 -23 13 -39 3 -15 10 -33 15 -40 6 -7 8 -15 5 -19 -7 -7 76 -230 90
-239 6 -4 7 -8 3 -8 -9 0 103 -223 115 -228 4 -2 8 -9 8 -14 0 -13 61 -112 72
-116 5 -2 8 -8 8 -14 0 -11 57 -88 75 -100 5 -4 7 -8 3 -8 -5 0 1 -10 11 -22
11 -13 28 -33 38 -45 72 -86 97 -114 167 -184 43 -43 81 -79 85 -79 4 0 18
-12 31 -27 14 -16 43 -41 65 -57 22 -17 44 -36 48 -43 4 -7 15 -13 22 -13 8 0
15 -5 15 -11 0 -5 4 -7 10 -4 5 3 10 2 10 -4 0 -5 17 -20 38 -32 20 -13 39
-27 40 -31 2 -4 7 -8 12 -8 4 0 34 -17 66 -38 31 -20 60 -37 63 -37 3 0 17 -8
31 -17 14 -9 41 -24 60 -32 19 -8 39 -18 43 -22 4 -4 13 -9 20 -10 7 -1 44
-17 82 -35 39 -18 78 -33 88 -32 9 0 17 -3 17 -8 0 -4 15 -11 33 -14 17 -4 37
-11 42 -15 6 -5 24 -10 41 -13 17 -3 41 -10 53 -17 13 -6 25 -9 29 -6 3 3 14
-1 24 -11 13 -11 18 -12 18 -3 0 10 4 9 17 -1 9 -8 18 -13 20 -11 2 2 18 0 36
-3 17 -3 41 -8 52 -10 11 -2 20 -4 20 -5 0 -1 11 -3 25 -4 14 -2 45 -6 70 -10
25 -4 58 -10 73 -12 16 -3 74 -6 130 -9 56 -2 104 -5 107 -6 3 -1 9 -1 13 0 5
1 61 4 125 7 109 4 177 10 177 14 0 0 21 3 47 5 27 2 56 6 65 9 10 3 36 8 58
12 48 8 70 12 70 14 0 2 34 10 60 15 11 2 20 4 20 5 0 1 7 3 15 5 8 2 29 8 47
13 17 6 34 8 37 4 3 -3 6 0 6 6 0 7 3 11 8 10 15 -4 163 51 235 88 16 8 35 14
43 14 8 0 14 5 14 11 0 5 5 7 10 4 6 -3 10 -1 10 4 0 6 3 10 8 9 12 -2 47 15
55 28 4 7 14 11 21 8 7 -3 16 1 19 9 3 8 17 17 32 21 15 4 32 11 38 17 7 5 48
33 92 61 44 29 85 57 92 63 18 15 34 27 68 53 110 82 308 279 380 377 17 22
36 44 42 48 7 4 13 14 13 21 0 8 7 17 16 20 9 4 14 9 11 12 -2 3 6 17 19 31
13 14 24 31 24 38 0 7 9 20 20 30 11 10 17 22 14 26 -3 5 -1 9 4 9 4 0 18 17
29 37 11 21 36 67 56 103 42 77 110 230 110 248 0 6 4 12 8 12 4 0 11 15 14
32 4 18 12 38 17 45 5 7 7 17 3 23 -3 5 -1 10 5 10 7 0 10 7 7 15 -4 8 -2 17
2 20 5 2 12 22 16 42 4 21 10 42 13 48 7 11 9 17 18 65 10 54 12 65 15 65 1 0
3 9 4 20 2 11 6 36 10 55 7 37 14 84 20 135 2 17 4 30 5 30 2 0 11 172 13 258
1 42 0 77 -3 77 -3 0 -5 26 -5 58 -1 52 -8 129 -19 209 -4 28 -12 72 -32 177
-3 16 -9 37 -15 48 -5 10 -8 18 -5 18 5 0 -18 89 -31 120 -4 8 -7 18 -8 23 -2
4 -3 8 -4 10 -2 1 -4 12 -7 25 -2 13 -10 33 -16 45 -7 12 -13 24 -13 27 -3 20
-24 68 -63 150 -25 52 -46 98 -46 102 -1 4 -10 18 -21 30 -10 13 -18 24 -17
25 4 6 -14 42 -44 84 -18 26 -31 49 -28 51 2 3 -5 13 -16 23 -11 10 -20 22
-20 27 0 5 -6 15 -12 22 -7 8 -20 24 -28 36 -21 32 -73 94 -82 98 -5 2 -8 8
-8 13 0 19 -215 242 -299 309 -24 19 -49 41 -56 48 -8 6 -17 12 -22 12 -4 0
-14 9 -21 20 -7 11 -19 20 -26 20 -8 0 -16 4 -18 8 -4 12 -155 112 -168 112
-5 0 -10 3 -10 8 0 4 -10 12 -23 18 -242 121 -267 133 -332 157 -22 8 -49 18
-60 23 -11 4 -26 6 -32 5 -7 -1 -13 3 -13 10 0 6 -6 9 -14 6 -7 -3 -17 -2 -22
2 -14 13 -170 53 -274 72 -96 17 -124 21 -165 26 -61 8 -495 11 -495 4z"/>
</g>
</svg>
